<svg width="412" height="91" viewBox="0 0 412 91" fill="none" xmlns="http://www.w3.org/2000/svg">
<path d="M0.739844 89.5L0.739844 25.78L18.9798 25.78L19.5798 37.3L17.0598 37.42C18.0198 35.34 19.2198 33.5 20.6598 31.9C22.1798 30.3 23.8598 28.98 25.6998 27.94C27.6198 26.82 29.5798 25.98 31.5798 25.42C33.6598 24.86 35.7398 24.58 37.8198 24.58C40.9398 24.58 43.7798 25.06 46.3398 26.02C48.8998 26.98 51.1398 28.54 53.0598 30.7C54.9798 32.78 56.4998 35.62 57.6198 39.22L54.6199 38.98L55.5798 37.06C56.6198 35.14 57.9398 33.42 59.5398 31.9C61.2198 30.3 63.0598 28.98 65.0598 27.94C67.0598 26.82 69.1398 25.98 71.2998 25.42C73.4599 24.86 75.5399 24.58 77.5398 24.58C82.5799 24.58 86.7799 25.58 90.1399 27.58C93.4999 29.5 96.0198 32.42 97.6998 36.34C99.4598 40.26 100.34 45.02 100.34 50.62L100.34 89.5H81.0198L81.0198 52.18C81.0198 49.62 80.6598 47.5 79.9398 45.82C79.2198 44.14 78.1398 42.9 76.6998 42.1C75.3398 41.22 73.6198 40.78 71.5398 40.78C69.8598 40.78 68.2999 41.06 66.8598 41.62C65.4998 42.18 64.2998 42.94 63.2598 43.9C62.2998 44.86 61.5398 45.98 60.9798 47.26C60.4198 48.54 60.1398 49.98 60.1398 51.58L60.1398 89.5H40.8198L40.8198 52.06C40.8198 49.66 40.4598 47.62 39.7398 45.94C39.0198 44.26 37.9398 42.98 36.4998 42.1C35.0598 41.22 33.3798 40.78 31.4598 40.78C29.7798 40.78 28.2198 41.06 26.7798 41.62C25.4198 42.18 24.2198 42.94 23.1798 43.9C22.2198 44.86 21.4598 45.98 20.8998 47.26C20.3398 48.54 20.0598 49.94 20.0598 51.46L20.0598 89.5L0.739844 89.5ZM139.81 90.58C134.45 90.58 129.65 89.18 125.41 86.38C121.25 83.5 117.93 79.58 115.45 74.62C112.97 69.58 111.73 63.9 111.73 57.58C111.73 51.1 112.97 45.38 115.45 40.42C117.93 35.46 121.33 31.58 125.65 28.78C129.97 25.9 134.89 24.46 140.41 24.46C143.45 24.46 146.21 24.9 148.69 25.78C151.25 26.66 153.49 27.9 155.41 29.5C157.33 31.02 158.97 32.82 160.33 34.9C161.69 36.9 162.69 39.06 163.33 41.38L159.37 40.9V25.78H178.45V89.5H159.01V74.14L163.33 74.02C162.69 76.26 161.65 78.38 160.21 80.38C158.77 82.38 157.01 84.14 154.93 85.66C152.85 87.18 150.53 88.38 147.97 89.26C145.41 90.14 142.69 90.58 139.81 90.58ZM145.09 74.38C148.05 74.38 150.61 73.7 152.77 72.34C154.93 70.98 156.61 69.06 157.81 66.58C159.01 64.02 159.61 61.02 159.61 57.58C159.61 54.14 159.01 51.18 157.81 48.7C156.61 46.14 154.93 44.18 152.77 42.82C150.61 41.38 148.05 40.66 145.09 40.66C142.21 40.66 139.69 41.38 137.53 42.82C135.45 44.18 133.81 46.14 132.61 48.7C131.41 51.18 130.81 54.14 130.81 57.58C130.81 61.02 131.41 64.02 132.61 66.58C133.81 69.06 135.45 70.98 137.53 72.34C139.69 73.7 142.21 74.38 145.09 74.38ZM195.391 89.5V25.78L213.631 25.78L214.231 38.74L210.391 40.18C211.271 37.3 212.831 34.7 215.071 32.38C217.391 29.98 220.151 28.06 223.351 26.62C226.551 25.18 229.911 24.46 233.431 24.46C238.231 24.46 242.271 25.46 245.551 27.46C248.831 29.38 251.311 32.3 252.991 36.22C254.671 40.06 255.511 44.78 255.511 50.38L255.511 89.5L236.191 89.5V51.94C236.191 49.38 235.831 47.26 235.111 45.58C234.391 43.9 233.271 42.66 231.751 41.86C230.311 40.98 228.511 40.58 226.351 40.66C224.671 40.66 223.111 40.94 221.671 41.5C220.231 41.98 218.991 42.74 217.951 43.78C216.911 44.74 216.071 45.86 215.431 47.14C214.871 48.42 214.591 49.82 214.591 51.34V89.5H205.111C202.871 89.5 200.951 89.5 199.351 89.5C197.751 89.5 196.431 89.5 195.391 89.5ZM295.683 90.82C290.163 90.82 285.243 89.42 280.923 86.62C276.683 83.74 273.323 79.82 270.843 74.86C268.363 69.82 267.123 64.1 267.123 57.7C267.123 51.3 268.363 45.62 270.843 40.66C273.323 35.62 276.723 31.66 281.043 28.78C285.363 25.9 290.323 24.46 295.923 24.46C298.803 24.46 301.563 24.9 304.203 25.78C306.843 26.66 309.243 27.86 311.403 29.38C313.563 30.9 315.323 32.66 316.683 34.66C318.043 36.58 318.843 38.58 319.083 40.66L314.523 41.74V0.699999L333.843 0.699999L333.843 89.5H315.963L314.883 74.98L318.723 75.58C318.483 77.58 317.683 79.5 316.323 81.34C315.043 83.18 313.363 84.82 311.283 86.26C309.203 87.62 306.803 88.7 304.083 89.5C301.443 90.38 298.643 90.82 295.683 90.82ZM300.603 74.86C303.563 74.86 306.123 74.14 308.283 72.7C310.443 71.26 312.083 69.26 313.203 66.7C314.403 64.14 315.003 61.14 315.003 57.7C315.003 54.18 314.403 51.14 313.203 48.58C312.083 46.02 310.443 44.02 308.283 42.58C306.123 41.14 303.563 40.42 300.603 40.42C297.643 40.42 295.083 41.14 292.923 42.58C290.843 44.02 289.203 46.02 288.003 48.58C286.803 51.14 286.203 54.18 286.203 57.7C286.203 61.14 286.803 64.14 288.003 66.7C289.203 69.26 290.843 71.26 292.923 72.7C295.083 74.14 297.643 74.86 300.603 74.86ZM373.599 90.58C368.239 90.58 363.439 89.18 359.199 86.38C355.039 83.5 351.719 79.58 349.239 74.62C346.759 69.58 345.519 63.9 345.519 57.58C345.519 51.1 346.759 45.38 349.239 40.42C351.719 35.46 355.119 31.58 359.439 28.78C363.759 25.9 368.679 24.46 374.199 24.46C377.239 24.46 379.999 24.9 382.479 25.78C385.039 26.66 387.279 27.9 389.199 29.5C391.119 31.02 392.759 32.82 394.119 34.9C395.479 36.9 396.479 39.06 397.119 41.38L393.159 40.9V25.78L412.239 25.78L412.239 89.5H392.799L392.799 74.14L397.119 74.02C396.479 76.26 395.439 78.38 393.999 80.38C392.559 82.38 390.799 84.14 388.719 85.66C386.639 87.18 384.319 88.38 381.759 89.26C379.199 90.14 376.479 90.58 373.599 90.58ZM378.879 74.38C381.839 74.38 384.399 73.7 386.559 72.34C388.719 70.98 390.399 69.06 391.599 66.58C392.799 64.02 393.399 61.02 393.399 57.58C393.399 54.14 392.799 51.18 391.599 48.7C390.399 46.14 388.719 44.18 386.559 42.82C384.399 41.38 381.839 40.66 378.879 40.66C375.999 40.66 373.479 41.38 371.319 42.82C369.239 44.18 367.599 46.14 366.399 48.7C365.199 51.18 364.599 54.14 364.599 57.58C364.599 61.02 365.199 64.02 366.399 66.58C367.599 69.06 369.239 70.98 371.319 72.34C373.479 73.7 375.999 74.38 378.879 74.38Z" fill="#FAA275"/>
</svg>
